<svg width="29" height="29" viewBox="0 0 29 29" fill="none" xmlns="http://www.w3.org/2000/svg">
<g clip-path="url(#clip0_16_335)">
<mask id="mask0_16_335" style="mask-type:luminance" maskUnits="userSpaceOnUse" x="0" y="0" width="29" height="29">
<path d="M0 0H29V29H0V0Z" fill="white"/>
</mask>
<g mask="url(#mask0_16_335)">
<path d="M11.8417 3.98752C12.325 3.50418 12.4458 3.14168 12.6875 3.02085C13.6542 2.17502 15.1042 2.17502 16.1917 3.02085C16.4333 3.14168 16.675 3.50418 17.0375 3.98752C17.2792 4.22918 17.4 4.35002 17.4 4.47085C17.8833 4.95418 18.6083 5.19585 19.3333 5.19585H19.9375C20.6625 5.07502 21.025 5.07502 21.2667 5.07502C22.5958 5.19585 23.5625 6.28335 23.6833 7.49168C23.6833 7.73335 23.6833 8.09585 23.5625 8.82085V9.42502C23.5625 10.15 23.8042 10.7542 24.2875 11.3583C24.4083 11.4792 24.5292 11.6 24.7708 11.7208C25.2542 12.2042 25.6167 12.325 25.7375 12.5667C26.5833 13.5333 26.5833 14.9833 25.7375 16.0708C25.6167 16.3125 25.2542 16.5542 24.7708 16.9167C24.5292 17.1583 24.4083 17.2792 24.2875 17.2792C23.8042 17.7625 23.5625 18.4875 23.5625 19.2125V19.8167C23.6833 20.5417 23.6833 20.9042 23.6833 21.1458C23.5625 22.475 22.475 23.4417 21.2667 23.5625C21.025 23.5625 20.6625 23.5625 19.9375 23.4417H19.3333C18.6083 23.4417 18.0042 23.6833 17.4 24.1667C17.2792 24.2875 17.1583 24.4083 17.0375 24.65C16.5542 25.1334 16.4333 25.4959 16.1917 25.6167C15.225 26.4625 13.775 26.4625 12.6875 25.6167C12.4458 25.4959 12.2042 25.1334 11.8417 24.65C11.6 24.4083 11.4792 24.2875 11.4792 24.1667C10.9958 23.6833 10.2708 23.4417 9.54584 23.4417H8.94167C8.21667 23.5625 7.85417 23.5625 7.6125 23.5625C6.28334 23.4417 5.31667 22.3542 5.19584 21.1458C5.19584 20.9042 5.19584 20.5417 5.31667 19.8167V19.2125C5.31667 18.4875 5.075 17.8833 4.59167 17.2792C4.47084 17.1583 4.35 17.0375 4.10834 16.9167C3.625 16.4333 3.2625 16.3125 3.14167 16.0708C2.29584 15.1042 2.29584 13.6542 3.14167 12.5667C3.2625 12.325 3.625 12.0834 4.10834 11.7208C4.35 11.4792 4.47084 11.3583 4.59167 11.3583C5.075 10.875 5.31667 10.15 5.31667 9.42502V8.82085C5.19584 8.21668 5.19584 7.85418 5.19584 7.61252C5.31667 6.28335 6.40417 5.31668 7.6125 5.19585C7.85417 5.19585 8.21667 5.19585 8.94167 5.31668H9.54584C10.2708 5.31668 10.875 5.07502 11.4792 4.59168C11.6 4.35002 11.7208 4.22918 11.8417 3.98752Z" fill="#4A35C8"/>
<path d="M13.2917 17.8833C13.05 17.8833 12.8083 17.7625 12.6875 17.6417L10.2708 15.225C9.90834 14.8625 9.90834 14.2583 10.2708 13.8958C10.6333 13.5333 11.2375 13.5333 11.6 13.8958L13.4125 15.7083L17.6417 11.4792C18.0042 11.1167 18.6083 11.1167 18.9708 11.4792C19.3333 11.8417 19.3333 12.4458 18.9708 12.8083L14.1375 17.6417C13.775 17.7625 13.5333 17.8833 13.2917 17.8833Z" fill="white"/>
</g>
</g>
<defs>
<clipPath id="clip0_16_335">
<rect width="29" height="29" fill="white"/>
</clipPath>
</defs>
</svg>
