<svg width="42" height="42" viewBox="0 0 42 42" fill="none" xmlns="http://www.w3.org/2000/svg">
<path d="M34.066 19.687H22.3125V7.93359C22.3125 7.5855 22.1742 7.25166 21.9281 7.00552C21.682 6.75937 21.3481 6.62109 21 6.62109C20.6519 6.62109 20.3181 6.75937 20.0719 7.00552C19.8258 7.25166 19.6875 7.5855 19.6875 7.93359V19.687H7.93408C7.58599 19.687 7.25215 19.8253 7.006 20.0715C6.75986 20.3176 6.62158 20.6514 6.62158 20.9995C6.62158 21.3476 6.75986 21.6815 7.006 21.9276C7.25215 22.1738 7.58599 22.312 7.93408 22.312H19.6875V34.0655C19.6875 34.4136 19.8258 34.7474 20.0719 34.9935C20.3181 35.2397 20.6519 35.378 21 35.378C21.3481 35.378 21.682 35.2397 21.9281 34.9935C22.1742 34.7474 22.3125 34.4136 22.3125 34.0655V22.312H34.066C34.4141 22.312 34.7479 22.1738 34.994 21.9276C35.2402 21.6815 35.3785 21.3476 35.3785 20.9995C35.3785 20.6514 35.2402 20.3176 34.994 20.0715C34.7479 19.8253 34.4141 19.687 34.066 19.687Z" fill="#4A35C8"/>
</svg>
