<svg width="307" height="33" viewBox="0 0 307 33" fill="none" xmlns="http://www.w3.org/2000/svg">
<path d="M11.295 32L0.99 0.499998H8.55L17.505 28.4H13.725L23.085 0.499998H29.835L38.835 28.4H35.19L44.37 0.499998H51.345L41.04 32H33.21L25.245 7.52H27.315L19.125 32H11.295ZM62.1197 13.19H77.2847V18.86H62.1197V13.19ZM62.6597 26.15H79.8047V32H55.4147V0.499998H79.2197V6.35H62.6597V26.15ZM85.6051 32V0.499998H100.995C104.955 0.499998 107.925 1.25 109.905 2.75C111.915 4.25 112.92 6.23 112.92 8.69C112.92 10.34 112.515 11.78 111.705 13.01C110.895 14.21 109.785 15.14 108.375 15.8C106.965 16.46 105.345 16.79 103.515 16.79L104.37 14.945C106.35 14.945 108.105 15.275 109.635 15.935C111.165 16.565 112.35 17.51 113.19 18.77C114.06 20.03 114.495 21.575 114.495 23.405C114.495 26.105 113.43 28.22 111.3 29.75C109.17 31.25 106.035 32 101.895 32H85.6051ZM92.8501 26.51H101.355C103.245 26.51 104.67 26.21 105.63 25.61C106.62 24.98 107.115 23.99 107.115 22.64C107.115 21.32 106.62 20.345 105.63 19.715C104.67 19.055 103.245 18.725 101.355 18.725H92.3101V13.415H100.095C101.865 13.415 103.215 13.115 104.145 12.515C105.105 11.885 105.585 10.94 105.585 9.68C105.585 8.45 105.105 7.535 104.145 6.935C103.215 6.305 101.865 5.99 100.095 5.99H92.8501V26.51ZM133.817 32V0.499998H145.967C149.327 0.499998 152.252 1.19 154.742 2.57C157.232 3.92 159.167 5.78 160.547 8.15C161.957 10.49 162.662 13.19 162.662 16.25C162.662 19.31 161.957 22.025 160.547 24.395C159.167 26.735 157.232 28.595 154.742 29.975C152.252 31.325 149.327 32 145.967 32H133.817ZM135.347 30.605H145.877C148.967 30.605 151.652 29.99 153.932 28.76C156.242 27.53 158.012 25.835 159.242 23.675C160.502 21.515 161.132 19.04 161.132 16.25C161.132 13.46 160.502 10.985 159.242 8.825C158.012 6.665 156.242 4.97 153.932 3.74C151.652 2.51 148.967 1.895 145.877 1.895H135.347V30.605ZM170.994 32V0.499998H172.524V32H170.994ZM197.231 32.18C194.891 32.18 192.716 31.79 190.706 31.01C188.726 30.2 186.986 29.075 185.486 27.635C184.016 26.195 182.876 24.515 182.066 22.595C181.256 20.645 180.851 18.53 180.851 16.25C180.851 13.97 181.256 11.87 182.066 9.95C182.876 8 184.016 6.305 185.486 4.865C186.986 3.425 188.726 2.315 190.706 1.535C192.716 0.724998 194.891 0.319997 197.231 0.319997C199.421 0.319997 201.476 0.664998 203.396 1.355C205.316 2.045 206.951 3.08 208.301 4.46L207.401 5.495C205.961 4.115 204.401 3.14 202.721 2.57C201.041 2 199.226 1.715 197.276 1.715C195.146 1.715 193.166 2.09 191.336 2.84C189.536 3.56 187.961 4.58 186.611 5.9C185.261 7.22 184.211 8.765 183.461 10.535C182.741 12.275 182.381 14.18 182.381 16.25C182.381 18.32 182.741 20.24 183.461 22.01C184.211 23.75 185.261 25.28 186.611 26.6C187.961 27.92 189.536 28.955 191.336 29.705C193.166 30.425 195.146 30.785 197.276 30.785C199.196 30.785 201.011 30.5 202.721 29.93C204.461 29.33 206.006 28.355 207.356 27.005L208.256 28.13C206.876 29.48 205.226 30.5 203.306 31.19C201.386 31.85 199.361 32.18 197.231 32.18ZM206.816 28.04V16.475H208.256V28.13L206.816 28.04ZM218.895 32V0.499998H220.425V32H218.895ZM237.932 32V1.895H226.367V0.499998H250.982V1.895H239.417V32H237.932ZM249.88 32L264.46 0.499998H265.945L280.525 32H278.86L264.865 1.535H265.54L251.545 32H249.88ZM254.92 22.775L255.505 21.47H274.765L275.35 22.775H254.92ZM286.658 32V0.499998H288.188V30.605H306.638V32H286.658Z" fill="black"/>
</svg>
