<svg width="19" height="16" viewBox="0 0 19 16" fill="none" xmlns="http://www.w3.org/2000/svg">
<path d="M0.951729 7.68132L5.17798 9.11654L15.2127 2.98191C15.3584 2.89332 15.5074 3.09085 15.382 3.20635L7.78526 10.1987L7.50307 14.1132C7.49846 14.1788 7.51389 14.2442 7.54732 14.3008C7.58075 14.3574 7.6306 14.4025 7.69025 14.4301C7.7499 14.4578 7.81654 14.4666 7.88133 14.4555C7.94611 14.4443 8.00599 14.4138 8.05301 14.3678L10.3919 12.0677L14.668 15.3043C15.1287 15.6534 15.7961 15.4073 15.9201 14.843L18.8975 1.32422C19.0675 0.55313 18.3115 -0.0978704 17.5745 0.184317L0.930729 6.55782C0.408354 6.75797 0.422792 7.5015 0.951729 7.68132Z" fill="white"/>
</svg>
